<?xml version="1.0" encoding="utf-8"?>
<!-- Generator: Adobe Illustrator 16.0.0, SVG Export Plug-In . SVG Version: 6.00 Build 0)  -->
<!DOCTYPE svg PUBLIC "-//W3C//DTD SVG 1.1//EN" "http://www.w3.org/Graphics/SVG/1.1/DTD/svg11.dtd">
<svg version="1.1" id="Layer_1" xmlns="http://www.w3.org/2000/svg" xmlns:xlink="http://www.w3.org/1999/xlink" x="0px" y="0px"
	 width="612px" height="792px" viewBox="0 0 612 792" enable-background="new 0 0 612 792" xml:space="preserve">
<g>
	<path fill="#FCFCFC" d="M526.129,550.939c0.13-1.167,0.373-2.333,0.373-3.5c0.02-57.193,0.018-114.388,0.018-171.582
		c0-28.957-0.04-57.913,0.037-86.87c0.015-4.859-1.844-8.385-6.207-10.393c-2.738-1.26-5.586-2.414-8.504-3.114
		c-2.338-0.562-2.998-1.579-2.933-3.884c0.159-5.675,0.052-11.357,0.052-17.037c0-7.836,0.018-7.887-7.549-10.378
		c-26.17-8.62-53.017-12.56-80.576-11.727c-11.283,0.341-22.466,1.488-33.514,3.729c-28.801,5.842-54.612,17.999-77.116,36.986
		c-1.29,1.088-2.046,0.887-3.223-0.122c-2.607-2.235-5.314-4.361-8.073-6.408c-31.673-23.496-67.661-33.715-106.671-34.392
		c-12.954-0.225-25.858,0.837-38.661,2.858c-14.602,2.305-28.952,5.615-42.804,10.907c-1.798,0.687-2.439,1.581-2.41,3.49
		c0.104,6.878,0.001,13.758,0.066,20.637c0.016,1.761-0.395,2.493-2.343,3.045c-4.571,1.295-9.139,2.833-13.408,4.896
		c-3.912,1.89-5.723,5.355-5.719,9.982c0.069,86.55,0.05,173.101,0.051,259.651c0,3.377,0.002,3.384,3.495,3.39
		c19.677,0.037,39.354,0.135,59.031,0.092c25.748-0.057,51.495-0.251,77.243-0.33c17.438-0.055,34.876-0.048,52.313,0.052
		c1.444,0.009,3.12,0.628,4.288,1.5c14.573,10.893,36.676,11.011,51.191,0.075c1.563-1.178,3.08-1.672,5.021-1.671
		c57.033,0.041,114.067,0.032,171.102,0.037c0.958,0,1.916,0.057,2.875,0.087c0.481,0.428,0.97,1.229,1.447,1.224
		C518.757,552.122,522.622,553.052,526.129,550.939z"/>
	<path fill="#898888" d="M513.574,550.947c-0.959-0.03-1.917-0.087-2.875-0.087c-57.033-0.004-114.067,0.004-171.102-0.037
		c-1.94-0.001-3.458,0.493-5.021,1.671c-14.516,10.936-36.618,10.817-51.191-0.075c-1.167-0.872-2.843-1.491-4.288-1.5
		c-17.438-0.1-34.875-0.104-52.313-0.052c-25.748,0.079-51.496,0.273-77.243,0.33c-19.677,0.043-39.354-0.055-59.031-0.091
		c-3.493-0.007-3.495-0.014-3.495-3.391c0-86.551,0.019-173.101-0.051-259.651c-0.004-4.627,1.807-8.093,5.719-9.982
		c4.269-2.063,8.836-3.601,13.408-4.896c1.948-0.552,2.359-1.284,2.343-3.045c-0.065-6.879,0.037-13.759-0.066-20.637
		c-0.029-1.909,0.611-2.803,2.41-3.49c13.853-5.292,28.203-8.602,42.804-10.907c12.803-2.021,25.708-3.083,38.661-2.858
		c39.01,0.677,74.998,10.896,106.671,34.392c2.758,2.047,5.465,4.173,8.073,6.408c1.177,1.009,1.933,1.21,3.223,0.122
		c22.504-18.987,48.315-31.144,77.116-36.986c11.048-2.241,22.229-3.388,33.514-3.729c27.561-0.833,54.406,3.107,80.576,11.727
		c7.565,2.492,7.549,2.542,7.549,10.378c0,5.68,0.107,11.362-0.052,17.037c-0.065,2.305,0.595,3.322,2.933,3.884
		c2.918,0.7,5.766,1.854,8.504,3.114c4.363,2.008,6.222,5.534,6.207,10.393c-0.078,28.957-0.038,57.913-0.038,86.87
		c0,57.194,0.002,114.388-0.017,171.582c0,1.167-0.243,2.333-0.373,3.5C521.943,550.941,517.759,550.944,513.574,550.947z
		 M120.945,512.029c1.178-0.414,1.978-0.756,2.809-0.979c7.942-2.115,15.792-4.747,23.854-6.211
		c23.869-4.337,47.792-3.076,71.615,0.602c29.188,4.505,57.399,12.638,84.833,23.52c0.698,0.276,1.429,0.473,2.189,0.721
		c0-33.738,0-67.213,0-101.17c-2.504,2.688-4.627,4.97-7.159,7.688c0-1.683,0-2.637,0-3.592
		c-0.001-49.029-0.009-98.058,0.024-147.086c0.001-1.633-0.328-2.826-1.679-3.916c-11.391-9.188-23.698-16.858-37.134-22.692
		c-24.263-10.537-49.698-14.58-76.027-13.917c-20.673,0.52-40.85,3.917-60.649,9.795c-2.002,0.594-2.722,1.452-2.72,3.633
		c0.06,83.581,0.047,167.162,0.043,250.742C120.945,510.015,120.945,510.864,120.945,512.029z M496.359,512.002
		c0-1.143,0-2.069,0-2.996c-0.003-83.428-0.016-166.856,0.041-250.284c0.001-2.266-0.571-3.324-2.854-3.995
		c-32.212-9.469-64.882-12.719-98.161-7.183c-27.777,4.621-52.712,15.728-74.714,33.368c-1.764,1.414-2.533,2.853-2.529,5.206
		c0.079,48.873,0.059,97.746,0.058,146.619c0,0.92,0,1.84,0,3.447c-2.606-2.802-4.734-5.09-7.124-7.658c0,33.951,0,67.439,0,101.115
		c0.959-0.377,1.633-0.62,2.29-0.901c15.017-6.412,30.406-11.762,46.151-16.063c27.359-7.475,55.109-12.027,83.593-11.006
		c17.62,0.632,34.803,3.542,51.349,9.804C494.962,511.666,495.5,511.767,496.359,512.002z"/>
	<path fill="#BEBEBE" d="M513.574,550.947c4.185-0.003,8.369-0.006,12.555-0.008c-3.507,2.111-7.372,1.183-11.107,1.23
		C514.544,552.178,514.057,551.375,513.574,550.947z"/>
	<path fill="#FFFFFF" d="M120.945,512.029c0-1.165,0-2.016,0-2.864c0.004-83.58,0.017-167.162-0.043-250.742
		c-0.002-2.181,0.718-3.039,2.72-3.633c19.8-5.878,39.976-9.275,60.649-9.795c26.329-0.663,51.764,3.38,76.027,13.917
		c13.436,5.834,25.743,13.503,37.134,22.692c1.351,1.09,1.681,2.283,1.679,3.916c-0.033,49.029-0.025,98.058-0.024,147.085
		c0,0.955,0,1.91,0,3.593c2.531-2.718,4.655-4.998,7.159-7.688c0,33.957,0,67.432,0,101.17c-0.761-0.248-1.491-0.443-2.189-0.721
		c-27.435-10.882-55.646-19.015-84.833-23.52c-23.824-3.678-47.747-4.938-71.615-0.602c-8.062,1.464-15.911,4.096-23.854,6.211
		C122.923,511.273,122.124,511.615,120.945,512.029z"/>
	<path fill="#FFFFFF" d="M496.359,512.002c-0.859-0.235-1.397-0.336-1.9-0.526c-16.546-6.262-33.729-9.172-51.349-9.804
		c-28.482-1.021-56.232,3.531-83.593,11.006c-15.745,4.304-31.136,9.651-46.151,16.063c-0.657,0.281-1.331,0.524-2.29,0.901
		c0-33.676,0-67.164,0-101.115c2.39,2.568,4.518,4.856,7.124,7.658c0-1.607,0-2.527,0-3.447
		c0.001-48.873,0.021-97.746-0.058-146.619c-0.004-2.354,0.767-3.792,2.529-5.206c22.002-17.641,46.937-28.747,74.714-33.368
		c33.279-5.537,65.949-2.286,98.161,7.183c2.281,0.671,2.854,1.729,2.854,3.995c-0.057,83.428-0.045,166.856-0.041,250.284
		C496.359,509.933,496.359,510.859,496.359,512.002z"/>
</g>
</svg>
